<svg xmlns="http://www.w3.org/2000/svg" viewBox="0 0 1170.12 268.23"><defs><style>.cls-1{fill:#fff;}</style></defs><title>sengen-logo</title><g id="レイヤー_2" data-name="レイヤー 2"><g id="レイヤー_1-2" data-name="レイヤー 1"><path class="cls-1" d="M0,204.9C0,193,7.08,185.15,19.37,185.15c10.81,0,19.37,5.59,19.37,20.49C38.74,224.27,46.94,231,60,231s21.23-6.71,21.23-26.08c0-21.61-8.19-35.39-35-58.86C11.92,115.86.75,94.63.75,64.82.75,23.84,22,0,61.84,0s59.61,25.71,59.61,59.23c0,13-7.08,19.75-19.37,19.75C89,79,82.7,70.41,82.7,59.23c0-13.78-7.45-22-20.49-22s-20.48,7.08-20.48,25c0,19,8.56,32.79,35.39,56.26,34.27,30.18,45.07,51,45.07,83.45,0,42.47-21.6,66.31-61.84,66.31S0,244.39,0,204.9Z"/><path class="cls-1" d="M145.66,244V24.22c0-11.93,8.57-20.49,20.49-20.49H241c10.81,0,18.63,7.82,18.63,18.62S251.84,41,241,41H186.64V109.9H226.5c10.81,0,18.63,7.82,18.63,18.63s-7.82,18.62-18.63,18.62H186.64v80.1H241c10.81,0,18.63,7.83,18.63,18.63s-7.82,18.63-18.63,18.63H166.15C154.23,264.51,145.66,255.94,145.66,244Z"/><path class="cls-1" d="M280.89,248.49V31.67c0-18.63,10.43-30.18,26.82-30.18,17.51,0,26.08,10.43,30.55,27.2l33.9,131.88h.75V19.75c0-11.55,6.7-18.26,18.25-18.26s18.26,6.71,18.26,18.26V242.9c0,17.88-8.94,23.84-21.61,23.84-14.16,0-21.24-7.08-25.71-24.22l-44-169.13h-.74v175.1c0,11.54-6.71,18.25-18.26,18.25S280.89,260,280.89,248.49Z"/><path class="cls-1" d="M437,202.66V65.57C437,23.84,457.84,0,498.07,0s61.1,23.84,61.1,65.57v5.21c0,11.18-8.19,19.38-19.37,19.38S520.43,82,520.43,70.78V63c0-18.63-8.2-25.71-21.24-25.71S478,44.33,478,63V205.64c0,18.63,8.19,25.34,21.23,25.34s21.24-6.71,21.24-25.34v-51h-4.1c-10.8,0-18.63-7.82-18.63-18.62s7.83-18.63,18.63-18.63h22.35c11.92,0,20.49,8.57,20.49,20.49v64.82c0,41.73-20.86,65.57-61.1,65.57S437,244.39,437,202.66Z"/><path class="cls-1" d="M585.62,244V24.22c0-11.93,8.57-20.49,20.49-20.49H681c10.8,0,18.62,7.82,18.62,18.62S691.79,41,681,41H626.6V109.9h39.86c10.8,0,18.63,7.82,18.63,18.63s-7.83,18.62-18.63,18.62H626.6v80.1H681c10.8,0,18.62,7.83,18.62,18.63s-7.82,18.63-18.62,18.63H606.11C594.19,264.51,585.62,255.94,585.62,244Z"/><path class="cls-1" d="M720.85,248.49V31.67c0-18.63,10.43-30.18,26.82-30.18,17.51,0,26.08,10.43,30.55,27.2l33.9,131.88h.74V19.75c0-11.55,6.71-18.26,18.26-18.26s18.25,6.71,18.25,18.26V242.9c0,17.88-8.94,23.84-21.6,23.84-14.16,0-21.24-7.08-25.71-24.22l-44-169.13h-.75v175.1c0,11.54-6.7,18.25-18.25,18.25S720.85,260,720.85,248.49Z"/><path class="cls-1" d="M878.05,246.62a21.61,21.61,0,1,1,21.61,21.61A21.62,21.62,0,0,1,878.05,246.62Z"/><path class="cls-1" d="M938.4,250c0-13.79,8.2-19,17.14-19,14.9,0,22.72-7.83,22.72-25V22c0-11.92,8.57-20.49,20.49-20.49s20.49,8.57,20.49,20.49V204.9c0,42.84-19.74,63.33-58.49,63.33C946.22,268.23,938.4,260,938.4,250Z"/><path class="cls-1" d="M1048.67,246.25v-222c0-13,7.45-20.49,20.49-20.49H1109c41,0,61.1,22.72,61.1,64.45v25.7c0,41.73-20.12,64.45-61.1,64.45h-19.37v87.92c0,13-7.45,20.49-20.49,20.49S1048.67,259.29,1048.67,246.25ZM1109,121.08c13,0,20.12-6,20.12-24.59V65.57c0-18.63-7.08-24.59-20.12-24.59h-19.37v80.1Z"/></g></g></svg>