<svg xmlns="http://www.w3.org/2000/svg" width="249.952" height="187.464" viewBox="0 0 249.952 187.464">
  <path id="envelope" d="M245.217,125.9a2.939,2.939,0,0,1,4.735,2.294v99.834a23.439,23.439,0,0,1-23.433,23.433H23.433A23.439,23.439,0,0,1,0,228.031V128.245a2.92,2.92,0,0,1,4.735-2.294c10.935,8.494,25.435,19.283,75.23,55.458,10.3,7.518,27.68,23.335,45.011,23.238,17.428.146,35.149-16.013,45.06-23.238C219.831,145.234,234.281,134.4,245.217,125.9ZM124.976,188.976c11.326.2,27.631-14.255,35.833-20.211,64.782-47.012,69.713-51.113,84.652-62.83a11.682,11.682,0,0,0,4.491-9.227V87.433A23.439,23.439,0,0,0,226.519,64H23.433A23.439,23.439,0,0,0,0,87.433v9.276a11.754,11.754,0,0,0,4.491,9.227c14.939,11.668,19.869,15.817,84.652,62.83C97.345,174.721,113.65,189.171,124.976,188.976Z" transform="translate(0 -64)" fill="#f27435"/>
</svg>
