<svg xmlns="http://www.w3.org/2000/svg" width="13.072" height="10.009" viewBox="0 0 13.072 10.009">
  <path id="sign-in-alt" d="M10.621,73.8H8.476A.307.307,0,0,1,8.17,73.5V72.476a.307.307,0,0,1,.306-.306h2.145a.816.816,0,0,0,.817-.817v-4.9a.816.816,0,0,0-.817-.817H8.476a.307.307,0,0,1-.306-.306V64.306A.307.307,0,0,1,8.476,64h2.145a2.452,2.452,0,0,1,2.451,2.451v4.9A2.452,2.452,0,0,1,10.621,73.8Zm-1.2-5.132L5.132,64.383a.614.614,0,0,0-1.047.434v2.451H.613A.611.611,0,0,0,0,67.881v2.451a.611.611,0,0,0,.613.613H4.085V73.4a.614.614,0,0,0,1.047.434L9.421,69.54A.618.618,0,0,0,9.421,68.672Z" transform="translate(0 -64)" fill="#f27435"/>
</svg>
