<svg xmlns="http://www.w3.org/2000/svg" width="200.515" height="160.412" viewBox="0 0 200.515 160.412">
  <path id="user-plus" d="M195.5,65.167H175.451V45.116a5.028,5.028,0,0,0-5.013-5.013H160.412a5.028,5.028,0,0,0-5.013,5.013V65.167H135.348a5.028,5.028,0,0,0-5.013,5.013V80.206a5.028,5.028,0,0,0,5.013,5.013H155.4V105.27a5.028,5.028,0,0,0,5.013,5.013h10.026a5.028,5.028,0,0,0,5.013-5.013V85.219H195.5a5.028,5.028,0,0,0,5.013-5.013V70.18A5.028,5.028,0,0,0,195.5,65.167ZM70.18,80.206a40.1,40.1,0,1,0-40.1-40.1A40.1,40.1,0,0,0,70.18,80.206ZM98.252,90.232H93.02a54.539,54.539,0,0,1-45.68,0H42.108A42.119,42.119,0,0,0,0,132.34v13.033a15.042,15.042,0,0,0,15.039,15.039H125.322a15.043,15.043,0,0,0,15.039-15.039V132.34A42.119,42.119,0,0,0,98.252,90.232Z" fill="#f27435"/>
</svg>
